<?xml version="1.0" standalone="no"?>
<!DOCTYPE svg PUBLIC "-//W3C//DTD SVG 20010904//EN"
 "http://www.w3.org/TR/2001/REC-SVG-20010904/DTD/svg10.dtd">
<svg version="1.0" xmlns="http://www.w3.org/2000/svg"
 width="500.000000pt" height="500.000000pt" viewBox="0 0 500.000000 500.000000"
 preserveAspectRatio="xMidYMid meet">

<g transform="translate(0.000000,500.000000) scale(0.100000,-0.100000)"
fill="#000000" stroke="none">
<path d="M1390 3645 c65 -21 85 -33 104 -67 22 -37 23 -86 2 -126 -15 -30 -79
-74 -183 -126 -28 -14 -55 -31 -58 -37 -4 -6 5 -4 21 4 16 8 54 22 84 32 161
52 218 111 210 215 -4 61 -66 102 -170 114 l-55 5 45 -14z"/>
<path d="M1993 3653 c9 -2 23 -2 30 0 6 3 -1 5 -18 5 -16 0 -22 -2 -12 -5z"/>
<path d="M1228 3643 c7 -3 16 -2 19 1 4 3 -2 6 -13 5 -11 0 -14 -3 -6 -6z"/>
<path d="M1878 3643 c7 -3 16 -2 19 1 4 3 -2 6 -13 5 -11 0 -14 -3 -6 -6z"/>
<path d="M2074 3636 c59 -22 88 -47 114 -97 49 -93 14 -230 -69 -273 l-34 -17
35 5 c120 21 187 171 128 286 -29 56 -93 98 -163 105 l-50 6 39 -15z"/>
<path d="M2650 3615 c-11 -34 -8 -46 40 -178 29 -78 62 -167 75 -197 41 -99
105 -279 105 -298 0 -29 -23 -53 -60 -62 -25 -6 -1 -8 84 -9 l119 -1 -27 21
c-37 29 -48 53 -186 419 -67 179 -126 329 -130 333 -4 5 -13 -8 -20 -28z"/>
<path d="M1091 3621 l24 -19 3 -319 c4 -340 -1 -387 -41 -403 -15 -6 4 -9 63
-9 61 0 79 3 63 9 l-23 9 0 370 c0 344 1 370 18 374 9 3 -16 5 -57 6 l-73 1
23 -19z"/>
<path d="M1741 3621 l24 -19 3 -319 c4 -340 -1 -387 -41 -403 -15 -6 7 -9 72
-9 90 -1 93 0 72 17 -12 9 -26 35 -31 57 -5 22 -10 185 -10 362 0 298 1 322
18 326 9 3 -16 5 -57 6 l-73 1 23 -19z"/>
<path d="M3091 3621 l24 -19 3 -319 c4 -340 -1 -387 -41 -403 -15 -6 7 -9 72
-9 90 -1 93 0 72 17 -35 27 -41 80 -41 367 0 275 8 350 37 373 14 10 2 12 -66
12 l-83 0 23 -19z"/>
<path d="M3333 3633 c21 -5 36 -40 39 -86 1 -27 2 -25 7 11 l6 43 234 -358
c129 -197 240 -365 248 -373 11 -12 13 -5 13 43 0 49 -5 64 -34 104 -18 27
-118 177 -221 336 l-188 287 -61 -1 c-33 -1 -53 -3 -43 -6z"/>
<path d="M3782 3624 c60 -32 87 -132 90 -332 2 -111 3 -95 8 86 5 220 5 224
29 243 l23 19 -88 0 c-85 -1 -88 -2 -62 -16z"/>
<path d="M2670 3322 c0 -6 -47 -43 -105 -83 -58 -39 -120 -89 -139 -111 -64
-74 -67 -172 -7 -231 42 -43 125 -49 191 -15 43 22 110 96 110 121 0 7 -8 -1
-19 -18 -10 -16 -33 -43 -50 -60 -28 -26 -40 -30 -91 -30 -69 0 -104 25 -120
85 -25 93 18 164 160 267 61 45 86 70 76 80 -3 3 -6 1 -6 -5z"/>
<path d="M1398 3263 c12 -2 30 -2 40 0 9 3 -1 5 -23 4 -22 0 -30 -2 -17 -4z"/>
<path d="M1486 3241 c44 -27 74 -94 74 -166 0 -109 -59 -184 -161 -204 l-44
-9 37 -1 c85 -2 178 52 213 125 17 37 20 120 4 161 -14 38 -57 83 -96 99 -47
20 -63 17 -27 -5z"/>
<path d="M1900 3229 c84 -65 110 -94 190 -214 49 -73 96 -135 105 -139 9 -3
40 -6 68 -6 52 1 52 1 22 14 -40 18 -72 54 -143 162 -33 51 -73 101 -89 112
-39 27 -184 95 -153 71z"/>
<path d="M2043 3243 c9 -2 23 -2 30 0 6 3 -1 5 -18 5 -16 0 -22 -2 -12 -5z"/>
<path d="M3381 3040 c-2 -79 -17 -132 -42 -152 -21 -17 -18 -18 72 -18 l94 0
-33 20 c-37 23 -69 85 -82 159 l-8 46 -1 -55z"/>
<path d="M2731 3054 c0 -11 3 -14 6 -6 3 7 2 16 -1 19 -3 4 -6 -2 -5 -13z"/>
<path d="M2465 2819 c-62 -18 -120 -107 -84 -130 10 -6 15 -3 17 11 4 24 34
42 55 34 8 -3 18 0 22 5 3 6 10 9 15 6 5 -3 18 -1 29 5 25 13 46 5 59 -23 10
-21 11 -21 11 7 1 28 -37 76 -60 76 -6 0 -7 5 -4 10 7 12 -18 12 -60 -1z"/>
<path d="M2675 2788 c-25 -14 -42 -37 -49 -63 -5 -19 -5 -19 9 -1 12 16 17 17
30 6 8 -7 22 -9 31 -6 9 4 23 1 30 -5 11 -9 17 -9 28 0 10 9 15 8 20 -4 3 -8
15 -15 26 -15 14 0 20 -7 20 -23 0 -17 9 -25 37 -34 21 -6 41 -9 45 -7 10 7
-32 74 -47 74 -7 0 -18 14 -25 30 -22 52 -104 77 -155 48z"/>
<path d="M2185 2750 c3 -5 8 -10 11 -10 2 0 4 5 4 10 0 6 -5 10 -11 10 -5 0
-7 -4 -4 -10z"/>
<path d="M2246 2735 c4 -8 10 -15 14 -15 4 0 11 -11 14 -25 8 -33 22 -32 29 2
7 39 -2 53 -34 53 -21 0 -27 -4 -23 -15z"/>
<path d="M2145 2720 c3 -5 8 -10 11 -10 2 0 4 5 4 10 0 6 -5 10 -11 10 -5 0
-7 -4 -4 -10z"/>
<path d="M2208 2713 c7 -3 16 -2 19 1 4 3 -2 6 -13 5 -11 0 -14 -3 -6 -6z"/>
<path d="M2448 2703 c7 -3 16 -2 19 1 4 3 -2 6 -13 5 -11 0 -14 -3 -6 -6z"/>
<path d="M2528 2703 c7 -3 16 -2 19 1 4 3 -2 6 -13 5 -11 0 -14 -3 -6 -6z"/>
<path d="M2750 2650 c0 -5 5 -10 11 -10 5 0 7 5 4 10 -3 6 -8 10 -11 10 -2 0
-4 -4 -4 -10z"/>
<path d="M2153 2618 c2 -7 12 -13 22 -13 10 0 20 6 23 13 2 7 -6 12 -23 12
-17 0 -25 -5 -22 -12z"/>
<path d="M2473 2598 c2 -7 12 -13 22 -13 10 0 20 6 23 13 2 7 -6 12 -23 12
-17 0 -25 -5 -22 -12z"/>
<path d="M2117 2570 c-3 -11 -1 -20 4 -20 5 0 9 4 9 9 0 5 10 7 23 4 25 -7 22
-1 -9 15 -18 10 -23 8 -27 -8z"/>
<path d="M2241 2548 c0 -31 1 -32 11 -10 6 12 15 22 19 22 15 0 38 -44 44 -86
5 -30 3 -45 -9 -57 -22 -21 -20 -30 3 -18 35 19 32 129 -5 166 -9 8 -26 15
-40 15 -21 0 -24 -5 -23 -32z"/>
<path d="M2195 2560 c3 -5 10 -10 16 -10 5 0 9 5 9 10 0 6 -7 10 -16 10 -8 0
-12 -4 -9 -10z"/>
<path d="M2700 2540 c0 -5 7 -10 16 -10 8 0 12 5 9 10 -3 6 -10 10 -16 10 -5
0 -9 -4 -9 -10z"/>
<path d="M2750 2540 c-13 -8 -13 -10 2 -10 9 0 20 5 23 10 8 13 -5 13 -25 0z"/>
<path d="M2807 2524 c-9 -10 -9 -44 1 -44 4 0 13 4 19 8 10 7 10 12 0 26 -7 9
-16 14 -20 10z"/>
<path d="M2790 2385 c0 -24 -3 -25 -60 -25 -57 0 -78 -11 -44 -24 9 -3 46 -6
84 -6 l68 0 -10 35 c-14 42 -38 55 -38 20z"/>
<path d="M2402 2348 c3 -39 6 -43 31 -46 16 -2 35 2 43 9 10 8 14 8 14 0 0 -6
14 -11 30 -11 29 0 30 2 30 45 l0 45 -76 0 -75 0 3 -42z"/>
<path d="M2140 2349 c0 -48 23 -149 34 -149 6 0 3 -5 -6 -11 -15 -8 -12 -17
32 -78 47 -64 50 -71 50 -129 0 -35 4 -62 10 -62 6 0 10 28 10 63 0 59 3 67
45 125 49 67 51 72 33 72 -7 -1 -29 -25 -48 -55 -19 -30 -37 -55 -41 -55 -4 0
-20 21 -37 48 -28 44 -30 51 -25 120 3 39 9 72 13 72 11 0 42 -118 35 -130 -3
-6 3 -10 15 -10 20 0 21 4 18 98 l-3 97 -67 3 c-64 3 -68 2 -68 -19z"/>
<path d="M2408 2183 c7 -3 16 -2 19 1 4 3 -2 6 -13 5 -11 0 -14 -3 -6 -6z"/>
<path d="M2715 2063 c-27 -70 -52 -131 -54 -136 -2 -5 2 -8 10 -5 7 2 18 19
24 38 13 37 28 43 93 34 37 -6 45 -11 57 -40 8 -19 19 -34 24 -34 14 0 17 -10
-39 124 -27 65 -50 124 -50 132 0 36 -19 3 -65 -113z m78 25 c8 -24 18 -51 22
-60 6 -16 1 -18 -44 -18 -28 0 -51 3 -51 7 0 16 44 113 51 113 4 0 14 -19 22
-42z"/>
<path d="M1080 2113 c16 -38 42 -99 58 -136 l29 -68 20 53 c12 29 37 90 57
136 20 47 31 82 23 80 -6 -3 -30 -48 -53 -101 -23 -54 -43 -100 -46 -103 -3
-3 -25 42 -49 100 -24 58 -49 106 -56 106 -8 0 -2 -24 17 -67z"/>
<path d="M1649 2165 c-108 -59 -71 -229 53 -242 104 -10 174 99 124 195 -29
57 -116 80 -177 47z m132 -25 c31 -23 51 -77 41 -112 -32 -106 -161 -118 -208
-20 -21 44 -6 101 33 131 34 27 96 28 134 1z"/>
<path d="M3249 2165 c-51 -27 -78 -99 -59 -151 25 -66 93 -106 154 -90 36 9
83 52 95 86 l10 30 -50 0 c-27 0 -49 -4 -49 -10 0 -5 16 -10 35 -10 19 0 35
-3 35 -6 0 -17 -24 -46 -50 -59 -38 -20 -75 -19 -111 2 -97 58 -57 203 57 203
36 0 49 -6 79 -36 40 -40 56 -40 29 1 -34 52 -118 71 -175 40z"/>
<path d="M3774 2050 l-1 -130 74 0 c42 0 73 4 73 10 0 6 -27 10 -60 10 l-60 0
0 50 0 50 60 0 c33 0 60 4 60 10 0 6 -27 10 -60 10 l-60 0 0 50 0 50 54 0 c30
0 58 5 61 10 4 6 -21 10 -67 10 l-73 0 -1 -130z"/>
</g>
</svg>
